<svg width="428" height="385" viewBox="0 0 428 385" fill="none" xmlns="http://www.w3.org/2000/svg">
<path opacity="0.5" fill-rule="evenodd" clip-rule="evenodd" d="M129.303 0.437134C117.391 0.437134 107.733 10.0942 107.733 22.0069C107.733 33.9195 117.391 43.5766 129.303 43.5766H194.298C204.243 45.4977 211.753 54.2489 211.753 64.7543C211.753 74.6633 205.071 83.0117 195.967 85.5397H103.419C91.5068 85.5397 81.8497 95.1968 81.8497 107.109C81.8497 119.022 91.5068 128.679 103.419 128.679H104.243C114.188 130.6 121.698 139.351 121.698 149.857C121.698 160.362 114.188 169.113 104.244 171.034H65.3782C53.4656 171.034 43.8085 180.691 43.8085 192.604C43.8085 204.517 53.4656 214.174 65.3783 214.174H107.381C117.325 216.095 124.836 224.846 124.836 235.351C124.836 245.857 117.326 254.608 107.381 256.529H21.8466C9.93397 256.529 0.276855 266.186 0.276855 278.099C0.276855 290.011 9.93395 299.668 21.8466 299.668H108.558C118.502 301.59 126.012 310.341 126.012 320.846C126.012 330.755 119.33 339.103 110.227 341.631H74.0062C62.0936 341.631 52.4364 351.289 52.4364 363.201C52.4364 375.114 62.0936 384.771 74.0062 384.771H215.582C227.495 384.771 237.152 375.114 237.152 363.201C237.152 351.289 227.495 341.631 215.582 341.631H183.014C173.91 339.103 167.229 330.755 167.229 320.846C167.229 310.341 174.739 301.59 184.683 299.668H366.178C378.091 299.668 387.748 290.011 387.748 278.099C387.748 266.186 378.091 256.529 366.178 256.529H310.18C300.236 254.608 292.726 245.857 292.726 235.351C292.726 224.846 300.236 216.095 310.18 214.174H406.18C418.093 214.174 427.75 204.517 427.75 192.604C427.75 180.691 418.093 171.034 406.18 171.034H263.411C254.307 168.506 247.625 160.158 247.625 150.249C247.625 138.348 257.262 128.699 269.158 128.679H366.178C378.091 128.679 387.748 119.022 387.748 107.109C387.748 95.1968 378.091 85.5397 366.178 85.5397H268.755C259.652 83.0117 252.97 74.6633 252.97 64.7543C252.97 54.2489 260.48 45.4977 270.424 43.5766H313.627C325.539 43.5766 335.196 33.9195 335.196 22.0069C335.196 10.0942 325.539 0.437134 313.627 0.437134H129.303ZM187.305 128.679H180.369C170.425 130.6 162.915 139.351 162.915 149.857C162.915 160.362 170.424 169.113 180.368 171.034H190.623C199.727 168.506 206.408 160.158 206.408 150.249C206.408 139.015 197.821 129.787 186.852 128.772C187.002 128.739 187.154 128.708 187.305 128.679ZM183.507 214.174H234.054C243.999 216.095 251.509 224.846 251.509 235.351C251.509 245.857 243.999 254.608 234.055 256.529H183.507C173.562 254.608 166.052 245.857 166.052 235.351C166.052 224.846 173.562 216.095 183.507 214.174Z" fill="black"/>
</svg>
