<svg width="271" height="286" viewBox="0 0 271 286" fill="none" xmlns="http://www.w3.org/2000/svg">
<path fill-rule="evenodd" clip-rule="evenodd" d="M164.296 0.451294C152.936 0.451294 143.727 9.66037 143.727 21.0203C143.727 32.3803 152.936 41.5894 164.296 41.5894H168.17C176.851 44.0001 183.223 51.9611 183.223 61.4104C183.223 71.4282 176.062 79.7733 166.579 81.6054H82.0202C70.6602 81.6054 61.4511 90.8145 61.4511 102.174C61.4511 113.534 70.6602 122.743 82.0202 122.743H133.902C143.385 124.575 150.547 132.921 150.547 142.939C150.547 152.388 144.175 160.349 135.494 162.76H20.687C9.32699 162.76 0.11792 171.969 0.11792 183.329C0.11792 194.689 9.32698 203.898 20.6869 203.898H42.3398C42.1951 203.926 42.0508 203.955 41.9072 203.986C52.3671 204.954 60.5567 213.754 60.5567 224.467C60.5567 233.916 54.185 241.877 45.5037 244.288H21.4349C10.075 244.288 0.865893 253.497 0.865893 264.857C0.865893 276.217 10.0749 285.426 21.4349 285.426H124.28C135.64 285.426 144.849 276.217 144.849 264.857C144.849 253.497 135.64 244.288 124.28 244.288H114.914C106.233 241.877 99.8611 233.916 99.8611 224.467C99.8611 213.107 109.07 203.898 120.43 203.898H122.18L122.179 203.898H221.142C232.502 203.898 241.711 194.689 241.711 183.329C241.711 171.969 232.502 162.76 221.142 162.76H204.905C196.223 160.349 189.852 152.388 189.852 142.939C189.852 132.921 197.013 124.575 206.496 122.743H249.564C260.924 122.743 270.133 113.534 270.133 102.174C270.133 90.8145 260.924 81.6054 249.564 81.6054H239.172C229.689 79.7733 222.527 71.4282 222.527 61.4104C222.527 51.9611 228.899 44.0001 237.581 41.5894H242.459C253.819 41.5894 263.028 32.3803 263.028 21.0203C263.028 9.66037 253.819 0.451294 242.459 0.451294H164.296Z" fill="black"/>
</svg>
