<svg width="233" height="328" viewBox="0 0 233 328" fill="none" xmlns="http://www.w3.org/2000/svg">
<path fill-rule="evenodd" clip-rule="evenodd" d="M129.8 0.436096C119.662 0.436096 111.444 8.65449 111.444 18.7924C111.444 28.9303 119.662 37.1487 129.8 37.1487H151.614C159.361 39.3001 165.047 46.4047 165.047 54.8374C165.047 63.7777 158.656 71.2252 150.193 72.86H73.396C63.2581 72.86 55.0397 81.0784 55.0397 91.2163C55.0397 101.354 63.2581 109.573 73.396 109.573H111.353C119.816 111.207 126.208 118.655 126.208 127.595C126.208 136.028 120.521 143.133 112.774 145.284H87.0798C76.9419 145.284 68.7235 153.502 68.7235 163.64C68.7235 173.019 75.7574 180.755 84.8377 181.861C84.4395 181.92 84.0454 181.992 83.656 182.076C92.9906 182.939 100.299 190.793 100.299 200.353C100.299 208.786 94.613 215.89 86.8657 218.042H19.3285C9.19056 218.042 0.972168 226.26 0.972168 236.398C0.972168 246.536 9.19056 254.754 19.3285 254.754H116.484C124.947 256.389 131.338 263.837 131.338 272.777C131.338 281.717 124.947 289.165 116.484 290.799H77.0673C66.9294 290.799 58.711 299.018 58.711 309.156C58.711 319.294 66.9294 327.512 77.0673 327.512H194.214C204.352 327.512 212.57 319.294 212.57 309.156C212.57 299.018 204.352 290.799 194.214 290.799H181.268C172.806 289.164 166.414 281.717 166.414 272.777C166.414 263.837 172.806 256.389 181.269 254.754H194.214C204.352 254.754 212.57 246.536 212.57 236.398C212.57 226.26 204.352 218.042 194.214 218.042H148.809C141.061 215.89 135.375 208.786 135.375 200.353C135.375 190.215 143.594 181.997 153.732 181.997H155.293L155.293 181.997H192.545C202.683 181.997 210.901 173.778 210.901 163.64C210.901 153.502 202.683 145.284 192.545 145.284H174.717C166.97 143.133 161.284 136.028 161.284 127.595C161.284 118.655 167.675 111.207 176.138 109.573H214.239C224.377 109.573 232.595 101.354 232.595 91.2163C232.595 81.3589 224.825 73.3163 215.076 72.8788C206.564 71.2829 200.123 63.8124 200.123 54.8374C200.123 45.0252 207.822 37.0112 217.509 36.5064C217.187 36.4896 216.864 36.4812 216.538 36.4812H215.824C223.571 34.3298 229.258 27.2251 229.258 18.7924C229.258 8.65449 221.039 0.436096 210.901 0.436096H129.8Z" fill="black"/>
</svg>
