<svg width="281" height="296" viewBox="0 0 281 296" fill="none" xmlns="http://www.w3.org/2000/svg">
<path fill-rule="evenodd" clip-rule="evenodd" d="M170.446 0.108276C158.671 0.108276 149.125 9.654 149.125 21.4292C149.125 33.2045 158.671 42.7502 170.446 42.7502H174.461C183.46 45.2489 190.064 53.5011 190.064 63.2959C190.064 73.6798 182.641 82.33 172.812 84.2291H85.1621C73.3869 84.2291 63.8412 93.7748 63.8412 105.55C63.8412 117.325 73.3869 126.871 85.1622 126.871H138.941C148.771 128.77 156.194 137.42 156.194 147.804C156.194 157.599 149.59 165.851 140.591 168.35H21.5871C9.81183 168.35 0.266113 177.896 0.266113 189.671C0.266113 201.446 9.81182 210.992 21.5871 210.992H44.0312C43.8812 211.021 43.7317 211.051 43.5829 211.084C54.4251 212.087 62.9139 221.209 62.9139 232.313C62.9139 242.108 56.3092 250.36 47.3105 252.858H22.3623C10.587 252.858 1.04132 262.404 1.04132 274.179C1.04132 285.955 10.587 295.5 22.3623 295.5H128.967C140.742 295.5 150.288 285.955 150.288 274.179C150.288 262.404 140.742 252.858 128.967 252.858H119.259C110.26 250.36 103.655 242.108 103.655 232.313C103.655 220.538 113.201 210.992 124.976 210.992H126.79L229.369 210.992C241.145 210.992 250.69 201.446 250.69 189.671C250.69 177.896 241.145 168.35 229.369 168.35H212.539C203.54 165.851 196.935 157.599 196.935 147.804C196.935 137.42 204.359 128.77 214.189 126.871H258.831C270.606 126.871 280.152 117.325 280.152 105.55C280.152 93.7748 270.606 84.2291 258.831 84.2291H248.058C238.229 82.3298 230.806 73.6797 230.806 63.296C230.806 53.5011 237.411 45.2488 246.41 42.7502H251.466C263.241 42.7502 272.787 33.2045 272.787 21.4292C272.787 9.654 263.241 0.108276 251.466 0.108276H170.446Z" fill="black"/>
</svg>
