<svg width="414" height="471" viewBox="0 0 414 471" fill="none" xmlns="http://www.w3.org/2000/svg">
<path fill-rule="evenodd" clip-rule="evenodd" d="M202.489 43.3347C214.402 43.3347 224.059 33.6776 224.059 21.7649C224.059 9.8523 214.402 0.19519 202.489 0.19519C190.577 0.19519 180.919 9.8523 180.919 21.7649C180.919 33.6776 190.577 43.3347 202.489 43.3347ZM250.335 22.1571C250.335 10.2444 259.992 0.587331 271.905 0.587331H339.751C351.664 0.587331 361.321 10.2444 361.321 22.1571C361.321 32.0661 354.639 40.4145 345.536 42.9425H346.375C346.758 42.9425 347.138 42.9524 347.516 42.9721C336.133 43.5651 327.086 52.9822 327.086 64.5122C327.086 75.0175 334.597 83.7686 344.541 85.6898H391.519C403.431 85.6898 413.088 95.3469 413.088 107.26C413.088 119.172 403.431 128.829 391.519 128.829H280.861C270.917 130.751 263.407 139.502 263.407 150.007C263.407 159.916 270.089 168.264 279.193 170.792H347.987C359.9 170.792 369.557 180.449 369.557 192.362C369.557 204.275 359.9 213.932 347.987 213.932H281.467L281.467 213.932H279.633C267.72 213.932 258.063 223.589 258.063 235.502C258.063 245.411 264.745 253.759 273.848 256.287H335.83C347.742 256.287 357.399 265.944 357.399 277.857C357.399 289.769 347.742 299.426 335.83 299.426H320.618C310.674 301.348 303.163 310.099 303.163 320.604C303.163 331.109 310.673 339.86 320.617 341.782H366.419C378.332 341.782 387.989 351.439 387.989 363.351C387.989 375.264 378.332 384.921 366.419 384.921H195.122C185.177 386.842 177.667 395.593 177.667 406.099C177.667 416.008 184.348 424.356 193.452 426.884H226.02C237.932 426.884 247.59 436.541 247.59 448.454C247.59 460.366 237.933 470.024 226.02 470.024H84.4439C72.5312 470.024 62.8741 460.366 62.8741 448.454C62.8741 436.541 72.5312 426.884 84.4438 426.884H120.665C129.768 424.356 136.45 416.008 136.45 406.099C136.45 395.593 128.94 386.842 118.996 384.921H71.8941C59.9815 384.921 50.3244 375.264 50.3244 363.351C50.3244 351.896 59.2546 342.526 70.5331 341.824C80.5886 339.992 88.2121 331.188 88.2121 320.604C88.2121 310.099 80.702 301.348 70.7577 299.426H22.4799C10.5673 299.426 0.910156 289.769 0.910156 277.857C0.910156 265.944 10.5673 256.287 22.4799 256.287H114.681C124.626 254.366 132.136 245.615 132.136 235.109C132.136 224.604 124.625 215.853 114.681 213.932H113.857C101.945 213.932 92.2875 204.275 92.2875 192.362C92.2875 180.449 101.945 170.792 113.857 170.792H206.405C215.509 168.264 222.191 159.916 222.191 150.007C222.191 139.502 214.681 130.751 204.737 128.829H139.741C127.828 128.829 118.171 119.172 118.171 107.26C118.171 95.3469 127.828 85.6898 139.741 85.6898H268.416C278.36 83.7686 285.87 75.0175 285.87 64.5122C285.87 54.4446 278.972 45.9879 269.645 43.6099C258.795 42.4805 250.335 33.3067 250.335 22.1571ZM190.807 213.932H197.743C197.591 213.961 197.44 213.992 197.29 214.025C208.258 215.04 216.846 224.268 216.846 235.502C216.846 245.411 210.165 253.759 201.061 256.287H190.806C180.862 254.366 173.352 245.615 173.352 235.109C173.352 224.604 180.862 215.853 190.807 213.932ZM244.493 299.426H146.883C136.939 301.348 129.429 310.099 129.429 320.604C129.429 331.109 136.939 339.86 146.883 341.782H244.493C254.437 339.86 261.947 331.109 261.947 320.604C261.947 310.099 254.437 301.348 244.493 299.426Z" fill="black"/>
</svg>
