<svg width="168" height="168" viewBox="0 0 168 168" fill="none" xmlns="http://www.w3.org/2000/svg">
<path opacity="0.6" fill-rule="evenodd" clip-rule="evenodd" d="M27.4083 0.478058C18.1676 0.478058 10.6765 7.96915 10.6765 17.2099C10.6765 26.4506 18.1676 33.9417 27.4083 33.9417H71.9235C71.4423 34.0028 70.9675 34.0842 70.4999 34.185C79.052 34.9765 85.7479 42.1714 85.7479 50.9301C85.7479 58.532 80.704 64.9559 73.7804 67.0376H37.5007C28.1585 67.0376 20.5851 74.611 20.5851 83.9533C20.5851 93.2956 28.1585 100.869 37.5007 100.869H43.2498C50.7673 102.548 56.3862 109.259 56.3862 117.282C56.3862 125.698 50.2049 132.67 42.1348 133.905C42.2765 133.927 42.4188 133.947 42.5617 133.965H16.744C7.5033 133.965 0.012207 141.456 0.012207 150.697C0.012207 159.937 7.50329 167.429 16.744 167.429H111.251C120.492 167.429 127.983 159.937 127.983 150.697C127.983 141.456 120.492 133.965 111.251 133.965H103.2C94.9222 132.914 88.5219 125.846 88.5219 117.282C88.5219 109.259 94.1408 102.548 101.658 100.869H149.659C159.001 100.869 166.575 93.2956 166.575 83.9533C166.575 74.611 159.001 67.0376 149.659 67.0376H129.851C122.927 64.9559 117.883 58.532 117.883 50.9301C117.883 41.6422 125.413 34.1128 134.701 34.1128H136.131C135.778 34.0446 135.422 33.9874 135.061 33.9417H150.599C159.839 33.9417 167.33 26.4506 167.33 17.2099C167.33 7.96915 159.839 0.478058 150.599 0.478058H27.4083Z" fill="black"/>
</svg>
