<svg
    width="20"
    height="20"
    viewBox="0 0 20 20"
    fill="none"
    xmlns="http://www.w3.org/2000/svg"
    aria-hidden="true"
>
    <path
        d="M5.15295 3.31785C7.11472 4.79277 9.22483 7.78327 9.99955 9.38815C10.7743 7.78339 12.8843 4.79274 14.8462 3.31785C16.2617 2.25362 18.5552 1.43017 18.5552 4.05042C18.5552 4.57372 18.2556 8.44641 18.0798 9.07512C17.4691 11.261 15.2434 11.8185 13.2636 11.4811C16.7242 12.0709 17.6046 14.0246 15.7034 15.9784C12.0926 19.6889 10.5137 15.0474 10.1089 13.8581C10.0347 13.64 10 13.538 9.9995 13.6248C9.99899 13.538 9.96428 13.64 9.89012 13.8581C9.48552 15.0474 7.9066 19.689 4.29564 15.9784C2.3944 14.0246 3.27472 12.0708 6.73537 11.4811C4.75555 11.8185 2.52985 11.261 1.91916 9.07512C1.74344 8.44635 1.44385 4.57366 1.44385 4.05042C1.44385 1.43017 3.7374 2.25362 5.15285 3.31785H5.15295Z"
        stroke-width="2.25"
        stroke-linejoin="round"
    />
</svg>
