<svg
    width="21"
    height="22"
    viewBox="0 0 21 22"
    fill="none"
    xmlns="http://www.w3.org/2000/svg"
>
    <path
        fill-rule="evenodd"
        clip-rule="evenodd"
        d="M20.3867 11.0151C20.3867 16.538 15.9096 21.0151 10.3867 21.0151C4.86387 21.0151 0.386719 16.538 0.386719 11.0151C0.386719 5.49229 4.86387 1.01514 10.3867 1.01514C15.9096 1.01514 20.3867 5.49229 20.3867 11.0151ZM15.2789 6.75419L13.5728 9.0496C11.4035 7.62597 8.25615 8.43949 8.48839 11.2867C8.72065 14.134 12.0814 14.2696 13.9117 12.846L15.4368 15.2769C12.9476 17.0224 9.45549 17.4668 6.86166 15.6255C5.48537 14.6484 4.61073 12.8383 4.69226 10.88C4.75087 9.47242 5.25852 8.31206 6.04815 7.4226C8.43069 4.73884 12.5693 4.60413 15.2789 6.75419Z"
    />
</svg>
