<svg
    width="21"
    height="22"
    viewBox="0 0 21 22"
    fill="none"
    xmlns="http://www.w3.org/2000/svg"
>
    <path
        d="M10.3867 21.0151C15.9096 21.0151 20.3867 16.538 20.3867 11.0151C20.3867 5.49229 15.9096 1.01514 10.3867 1.01514C4.86387 1.01514 0.386719 5.49229 0.386719 11.0151C0.386719 16.538 4.86387 21.0151 10.3867 21.0151Z"
        fill="#FAFAFA"
        stroke="#71717A"
        stroke-width="0.271961"
    />
    <path
        d="M13.5728 9.0496L15.2789 6.75419C12.5693 4.60413 8.43069 4.73884 6.04815 7.4226C5.25852 8.31206 4.75087 9.47242 4.69226 10.88C4.61073 12.8383 5.48537 14.6484 6.86166 15.6255C9.45549 17.4668 12.9476 17.0224 15.4368 15.2769L13.9117 12.846C12.0814 14.2696 8.72065 14.134 8.48839 11.2867C8.25615 8.43949 11.4035 7.62597 13.5728 9.0496Z"
        fill="#18181B"
    />
</svg>
