<svg
    width="20"
    height="20"
    viewBox="0 0 20 20"
    fill="none"
    xmlns="http://www.w3.org/2000/svg"
>
    <path
        fill-rule="evenodd"
        clip-rule="evenodd"
        d="M9.53769 0.206365C9.81761 0.0197537 10.1823 0.0197534 10.4622 0.206364L19.5624 6.27317C19.7943 6.42773 19.9335 6.68792 19.9335 6.96655V13.0334C19.9335 13.312 19.7943 13.5722 19.5624 13.7268L10.4622 19.7936C10.1823 19.9802 9.81761 19.9802 9.53769 19.7936L0.43749 13.7268C0.219222 13.5813 0.0830178 13.3421 0.0678269 13.0821H0.0664062V6.96655C0.0664062 6.68792 0.205657 6.42773 0.43749 6.27317L9.53769 0.206365ZM2.40206 13.0334L9.16652 17.5431V13.4792L5.44992 11.0015L2.40206 13.0334ZM3.9476 9.99998L1.73308 11.4763V8.52364L3.9476 9.99998ZM6.95224 9.99999L9.99994 12.0318L13.0477 9.99999L9.99994 7.9682L6.95224 9.99999ZM10.8332 6.52061L14.55 8.99844L17.5979 6.96655L10.8332 2.45678V6.52061ZM9.16652 2.4569L2.40206 6.96655L5.44992 8.99844L9.16652 6.52073V2.4569ZM18.2668 8.52364L16.0523 9.99998L18.2668 11.4763V8.52364ZM17.5979 13.0334L14.55 11.0015L10.8332 13.4794V17.5432L17.5979 13.0334Z"
    />
</svg>
