<svg
    width="20"
    height="20"
    viewBox="0 0 20 20"
    fill="none"
    xmlns="http://www.w3.org/2000/svg"
>
    <path
        fill-rule="evenodd"
        clip-rule="evenodd"
        d="M10 20.001C15.5107 20.001 19.978 15.5337 19.978 10.0229C19.978 4.51224 15.5107 0.0449219 10 0.0449219C4.48929 0.0449219 0.0219727 4.51224 0.0219727 10.0229C0.0219727 15.5337 4.48929 20.001 10 20.001ZM4.64476 7.95998H6.94194C7.04389 7.95998 7.1265 8.04262 7.1265 8.14454V15.5244C7.1265 15.6263 7.04389 15.709 6.94194 15.709H4.64476C4.54281 15.709 4.4602 15.6263 4.4602 15.5244V8.14454C4.4602 8.04262 4.54281 7.95998 4.64476 7.95998ZM5.79466 4.29102C4.95881 4.29102 4.27881 4.97028 4.27881 5.80521C4.27881 6.6405 4.95881 7.32003 5.79466 7.32003C6.62985 7.32003 7.3093 6.64046 7.3093 5.80521C7.30933 4.97028 6.62985 4.29102 5.79466 4.29102ZM10.7664 8.62399C11.18 8.17332 11.8621 7.7767 12.7847 7.7767C15.3721 7.7767 15.7209 9.64702 15.7209 11.4766V15.5246C15.7209 15.6266 15.6383 15.7092 15.5363 15.7092H13.2434C13.1414 15.7092 13.0588 15.6266 13.0588 15.5246V11.9365C13.0588 10.9319 12.9845 10.1635 12.0505 10.1635C11.1928 10.1635 10.8585 10.6428 10.8585 11.8732V15.5245C10.8585 15.6265 10.7759 15.7091 10.674 15.7091H8.38182C8.27986 15.7091 8.19725 15.6265 8.19725 15.5245V8.14468C8.19725 8.04277 8.27986 7.96012 8.38182 7.96012H10.5818C10.6837 7.96012 10.7664 8.04277 10.7664 8.14468V8.62399Z"
    />
</svg>
