<svg
    width="20"
    height="20"
    viewBox="0 0 20 20"
    fill="none"
    xmlns="http://www.w3.org/2000/svg"
>
    <path
        d="M4.65577 6.45703H0.640699C0.462504 6.45703 0.318115 6.60148 0.318115 6.77962V19.6783C0.318115 19.8565 0.462504 20.0009 0.640699 20.0009H4.65577C4.83397 20.0009 4.97836 19.8565 4.97836 19.6783V6.77962C4.97836 6.60148 4.83397 6.45703 4.65577 6.45703Z"
        fill="white"
    />
    <path
        d="M2.64945 0.0449219C1.18853 0.0449219 0 1.23216 0 2.69147C0 4.15142 1.18853 5.33911 2.64945 5.33911C4.10921 5.33911 5.29677 4.15135 5.29677 2.69147C5.29683 1.23216 4.10921 0.0449219 2.64945 0.0449219Z"
        fill="white"
    />
    <path
        d="M14.8679 6.13672C13.2553 6.13672 12.0632 6.82995 11.3402 7.61764V6.77989C11.3402 6.60176 11.1958 6.4573 11.0176 6.4573H7.17244C6.99424 6.4573 6.84985 6.60176 6.84985 6.77989V19.6786C6.84985 19.8568 6.99424 20.0012 7.17244 20.0012H11.1787C11.3569 20.0012 11.5013 19.8568 11.5013 19.6786V13.2967C11.5013 11.1462 12.0855 10.3084 13.5846 10.3084C15.2172 10.3084 15.347 11.6515 15.347 13.4074V19.6787C15.347 19.8569 15.4914 20.0013 15.6696 20.0013H19.6773C19.8555 20.0013 19.9999 19.8569 19.9999 19.6787V12.6035C19.9999 9.40572 19.3902 6.13672 14.8679 6.13672Z"
        fill="white"
    />
</svg>
