<svg
    width="149"
    height="73"
    viewBox="0 0 149 73"
    fill="none"
    xmlns="http://www.w3.org/2000/svg"
>
    <path
        d="M50.8259 49.33C49.3079 49.33 47.9769 48.978 46.8329 48.274C45.6889 47.57 44.7979 46.613 44.1599 45.403C43.5439 44.171 43.2359 42.785 43.2359 41.245C43.2359 39.529 43.5439 38.066 44.1599 36.856C44.7979 35.646 45.6669 34.733 46.7669 34.117C47.8669 33.479 49.1099 33.16 50.4959 33.16C51.8599 33.16 53.0919 33.435 54.1919 33.985C55.2919 34.535 56.1609 35.316 56.7989 36.328C57.4369 37.318 57.7559 38.462 57.7559 39.76C57.7559 40.178 57.7339 40.651 57.6899 41.179L57.6239 41.839H47.6909C47.6909 43.929 48.0099 45.458 48.6479 46.426C49.2859 47.372 50.1769 47.845 51.3209 47.845C52.3769 47.845 53.2569 47.614 53.9609 47.152C54.6869 46.668 55.3799 45.986 56.0399 45.106L57.0629 45.865C56.4249 46.855 55.6219 47.68 54.6539 48.34C53.7079 49 52.4319 49.33 50.8259 49.33ZM53.3009 40.354C53.3009 38.286 53.0589 36.823 52.5749 35.965C52.0909 35.085 51.3979 34.645 50.4959 34.645C49.6599 34.645 48.9779 35.096 48.4499 35.998C47.9439 36.878 47.6909 38.33 47.6909 40.354H53.3009ZM68.9029 49.33C67.2969 49.33 65.8889 48.978 64.6789 48.274C63.4909 47.548 62.5779 46.58 61.9399 45.37C61.3019 44.138 60.9829 42.763 60.9829 41.245C60.9829 39.727 61.3019 38.363 61.9399 37.153C62.5779 35.921 63.4909 34.953 64.6789 34.249C65.8889 33.523 67.2969 33.16 68.9029 33.16C70.5089 33.16 71.9059 33.523 73.0939 34.249C74.3039 34.953 75.2279 35.921 75.8659 37.153C76.5039 38.363 76.8229 39.727 76.8229 41.245C76.8229 42.763 76.5039 44.138 75.8659 45.37C75.2279 46.58 74.3039 47.548 73.0939 48.274C71.9059 48.978 70.5089 49.33 68.9029 49.33ZM68.9029 47.845C70.0249 47.845 70.8829 47.24 71.4769 46.03C72.0709 44.82 72.3679 43.225 72.3679 41.245C72.3679 39.265 72.0709 37.67 71.4769 36.46C70.8829 35.25 70.0249 34.645 68.9029 34.645C67.7809 34.645 66.9229 35.25 66.3289 36.46C65.7349 37.67 65.4379 39.265 65.4379 41.245C65.4379 43.225 65.7349 44.82 66.3289 46.03C66.9229 47.24 67.7809 47.845 68.9029 47.845ZM87.1439 49.33C84.9219 49.33 83.2059 48.582 81.9959 47.086C80.8079 45.568 80.2139 43.621 80.2139 41.245C80.2139 38.869 80.8189 36.933 82.0289 35.437C83.2609 33.919 85.0209 33.16 87.3089 33.16C88.1009 33.16 88.9479 33.325 89.8499 33.655C90.1799 33.809 90.4879 33.974 90.7739 34.15V31.51C90.7739 30.388 90.6199 29.563 90.3119 29.035C90.0039 28.485 89.3879 28.21 88.4639 28.21H88.1339V27.22H92.0939C92.8859 27.22 93.4909 27.352 93.9089 27.616C94.3269 27.88 94.6239 28.32 94.7999 28.936C94.9759 29.53 95.0639 30.388 95.0639 31.51V49H92.2589L91.1039 47.515H90.9389C90.7409 47.823 90.4329 48.131 90.0149 48.439C89.2669 49.033 88.3099 49.33 87.1439 49.33ZM87.8039 47.845C88.6179 47.845 89.3549 47.493 90.0149 46.789C90.2569 46.547 90.5099 46.184 90.7739 45.7V35.635C90.5539 35.459 90.2899 35.294 89.9819 35.14C89.2779 34.81 88.6069 34.645 87.9689 34.645C85.7689 34.645 84.6689 36.845 84.6689 41.245C84.6689 43.291 84.9109 44.908 85.3949 46.096C85.9009 47.262 86.7039 47.845 87.8039 47.845ZM107.138 49.33C105.532 49.33 104.124 48.978 102.914 48.274C101.726 47.548 100.813 46.58 100.175 45.37C99.5368 44.138 99.2178 42.763 99.2178 41.245C99.2178 39.727 99.5368 38.363 100.175 37.153C100.813 35.921 101.726 34.953 102.914 34.249C104.124 33.523 105.532 33.16 107.138 33.16C108.744 33.16 110.141 33.523 111.329 34.249C112.539 34.953 113.463 35.921 114.101 37.153C114.739 38.363 115.058 39.727 115.058 41.245C115.058 42.763 114.739 44.138 114.101 45.37C113.463 46.58 112.539 47.548 111.329 48.274C110.141 48.978 108.744 49.33 107.138 49.33ZM107.138 47.845C108.26 47.845 109.118 47.24 109.712 46.03C110.306 44.82 110.603 43.225 110.603 41.245C110.603 39.265 110.306 37.67 109.712 36.46C109.118 35.25 108.26 34.645 107.138 34.645C106.016 34.645 105.158 35.25 104.564 36.46C103.97 37.67 103.673 39.265 103.673 41.245C103.673 43.225 103.97 44.82 104.564 46.03C105.158 47.24 106.016 47.845 107.138 47.845ZM129.801 33.82C130.197 34.106 130.483 34.425 130.659 34.777C130.835 35.107 130.923 35.283 130.923 35.305L129.24 36.592C129.086 36.394 128.888 36.185 128.646 35.965C128.162 35.525 127.601 35.305 126.963 35.305C125.687 35.305 124.708 35.646 124.026 36.328L124.092 36.823C124.136 37.219 124.158 37.582 124.158 37.912V49H119.868V37.78C119.868 36.658 119.714 35.833 119.406 35.305C119.12 34.755 118.515 34.48 117.591 34.48H117.261V33.49H120.528C121.276 33.49 121.859 33.589 122.277 33.787C122.717 33.963 123.058 34.271 123.3 34.711C124.488 33.677 125.874 33.16 127.458 33.16C128.404 33.16 129.185 33.38 129.801 33.82ZM138.578 49.33C136.796 49.33 135.41 48.934 134.42 48.142C133.452 47.328 132.968 46.239 132.968 44.875C132.968 43.775 133.221 42.862 133.727 42.136C134.255 41.41 135.168 40.86 136.466 40.486C137.764 40.112 139.568 39.925 141.878 39.925H142.373C142.373 38.011 142.109 36.658 141.581 35.866C141.053 35.052 140.272 34.645 139.238 34.645C138.38 34.645 137.676 34.854 137.126 35.272C136.576 35.69 136.18 36.471 135.938 37.615H134.123C134.123 36.867 134.167 36.229 134.255 35.701C134.365 35.173 134.596 34.711 134.948 34.315C135.63 33.545 137.28 33.16 139.898 33.16C142.098 33.16 143.77 33.743 144.914 34.909C146.08 36.053 146.663 37.78 146.663 40.09V49H143.858L142.703 47.515H142.538C142.34 47.823 142.032 48.131 141.614 48.439C140.866 49.033 139.854 49.33 138.578 49.33ZM139.568 47.68C140.03 47.68 140.426 47.592 140.756 47.416C141.086 47.218 141.405 46.954 141.713 46.624C141.999 46.316 142.219 45.953 142.373 45.535V41.41H141.878C140.316 41.41 139.183 41.696 138.479 42.268C137.775 42.818 137.423 43.687 137.423 44.875C137.423 45.777 137.61 46.47 137.984 46.954C138.358 47.438 138.886 47.68 139.568 47.68ZM35.5869 69.16C34.8082 69.16 34.0935 69.0213 33.4429 68.744C32.7922 68.4667 32.2269 68.072 31.7469 67.56C31.2669 67.0373 30.8935 66.424 30.6269 65.72C30.3709 65.016 30.2429 64.2427 30.2429 63.4C30.2429 62.6 30.3815 61.8587 30.6589 61.176C30.9469 60.4827 31.3415 59.8747 31.8429 59.352C32.3442 58.8293 32.9255 58.424 33.5869 58.136C34.2482 57.848 34.9629 57.704 35.7309 57.704C36.2749 57.704 36.8029 57.7893 37.3149 57.96C37.8375 58.12 38.3069 58.3493 38.7229 58.648C39.1495 58.936 39.4962 59.2667 39.7629 59.64L38.6109 60.84C38.3015 60.5307 37.9869 60.2747 37.6669 60.072C37.3575 59.8587 37.0375 59.6987 36.7069 59.592C36.3869 59.4853 36.0615 59.432 35.7309 59.432C35.2082 59.432 34.7175 59.5333 34.2589 59.736C33.8109 59.928 33.4162 60.2 33.0749 60.552C32.7442 60.904 32.4829 61.3253 32.2909 61.816C32.0989 62.296 32.0029 62.824 32.0029 63.4C32.0029 64.008 32.0935 64.5627 32.2749 65.064C32.4669 65.5547 32.7335 65.976 33.0749 66.328C33.4162 66.68 33.8215 66.952 34.2909 67.144C34.7709 67.3253 35.2989 67.416 35.8749 67.416C36.2269 67.416 36.5735 67.368 36.9149 67.272C37.2562 67.176 37.5762 67.0373 37.8749 66.856C38.1735 66.6747 38.4455 66.4613 38.6909 66.216L39.5549 67.624C39.3095 67.912 38.9735 68.1733 38.5469 68.408C38.1309 68.6427 37.6615 68.8293 37.1389 68.968C36.6269 69.096 36.1095 69.16 35.5869 69.16ZM53.5342 69V57.8H55.2622V69H53.5342ZM46.2222 69V57.8H47.9502V69H46.2222ZM46.9742 64.248V62.584H54.3022V64.248H46.9742ZM62.2981 69V67.4H64.1061V59.4H62.2981V57.8H67.6421V59.4H65.8341V67.4H67.6421V69H62.2981ZM79.1284 69.16C78.339 69.16 77.6084 69.016 76.9364 68.728C76.275 68.44 75.6937 68.04 75.1924 67.528C74.7017 67.0053 74.3177 66.3973 74.0404 65.704C73.7737 65 73.6404 64.232 73.6404 63.4C73.6404 62.568 73.7737 61.8053 74.0404 61.112C74.3177 60.408 74.7017 59.8 75.1924 59.288C75.6937 58.7653 76.275 58.36 76.9364 58.072C77.6084 57.784 78.339 57.64 79.1284 57.64C79.9177 57.64 80.643 57.784 81.3044 58.072C81.9764 58.36 82.5577 58.7653 83.0484 59.288C83.5497 59.8107 83.9337 60.424 84.2004 61.128C84.4777 61.8213 84.6164 62.5787 84.6164 63.4C84.6164 64.2213 84.4777 64.984 84.2004 65.688C83.9337 66.3813 83.5497 66.9893 83.0484 67.512C82.5577 68.0347 81.9764 68.44 81.3044 68.728C80.643 69.016 79.9177 69.16 79.1284 69.16ZM79.1284 67.48C79.6724 67.48 80.1684 67.3787 80.6164 67.176C81.075 66.9733 81.4697 66.6907 81.8004 66.328C82.131 65.9547 82.387 65.5227 82.5684 65.032C82.7604 64.5307 82.8564 63.9867 82.8564 63.4C82.8564 62.8133 82.7604 62.2747 82.5684 61.784C82.387 61.2827 82.131 60.8507 81.8004 60.488C81.4697 60.1147 81.075 59.8267 80.6164 59.624C80.1684 59.4213 79.6724 59.32 79.1284 59.32C78.5844 59.32 78.083 59.4213 77.6244 59.624C77.1764 59.8267 76.7817 60.1093 76.4404 60.472C76.1097 60.8347 75.8537 61.2667 75.6724 61.768C75.491 62.2587 75.4004 62.8027 75.4004 63.4C75.4004 63.9867 75.491 64.5307 75.6724 65.032C75.8537 65.5333 76.1097 65.9653 76.4404 66.328C76.7817 66.6907 77.1764 66.9733 77.6244 67.176C78.083 67.3787 78.5844 67.48 79.1284 67.48ZM94.732 69.16C94.124 69.16 93.5586 69.08 93.036 68.92C92.524 68.76 92.0546 68.52 91.628 68.2C91.212 67.8693 90.8386 67.464 90.508 66.984L91.692 65.624C92.2146 66.3707 92.716 66.888 93.196 67.176C93.676 67.464 94.2466 67.608 94.908 67.608C95.3133 67.608 95.6813 67.544 96.012 67.416C96.3426 67.288 96.604 67.112 96.796 66.888C96.988 66.664 97.084 66.408 97.084 66.12C97.084 65.928 97.052 65.7467 96.988 65.576C96.924 65.4053 96.8226 65.2507 96.684 65.112C96.556 64.9733 96.3853 64.8453 96.172 64.728C95.9693 64.6107 95.7293 64.5093 95.452 64.424C95.1746 64.328 94.8546 64.248 94.492 64.184C93.916 64.0667 93.4146 63.912 92.988 63.72C92.5613 63.528 92.204 63.288 91.916 63C91.628 62.712 91.4146 62.3867 91.276 62.024C91.1373 61.6507 91.068 61.2347 91.068 60.776C91.068 60.328 91.164 59.912 91.356 59.528C91.5586 59.144 91.8306 58.8133 92.172 58.536C92.524 58.248 92.9346 58.0293 93.404 57.88C93.8733 57.72 94.38 57.64 94.924 57.64C95.5 57.64 96.028 57.7147 96.508 57.864C96.988 58.0133 97.4146 58.2373 97.788 58.536C98.1613 58.824 98.4706 59.1813 98.716 59.608L97.5 60.808C97.2866 60.456 97.0466 60.1627 96.78 59.928C96.5133 59.6827 96.22 59.5013 95.9 59.384C95.58 59.256 95.2386 59.192 94.876 59.192C94.46 59.192 94.0973 59.256 93.788 59.384C93.4786 59.512 93.2333 59.6933 93.052 59.928C92.8813 60.152 92.796 60.4187 92.796 60.728C92.796 60.952 92.8386 61.16 92.924 61.352C93.0093 61.5333 93.1373 61.6987 93.308 61.848C93.4893 61.9867 93.7293 62.1147 94.028 62.232C94.3266 62.3387 94.684 62.4347 95.1 62.52C95.6866 62.648 96.2093 62.8133 96.668 63.016C97.1266 63.208 97.516 63.4373 97.836 63.704C98.156 63.9707 98.396 64.2693 98.556 64.6C98.7266 64.9307 98.812 65.288 98.812 65.672C98.812 66.3867 98.6466 67.0053 98.316 67.528C97.9853 68.0507 97.516 68.456 96.908 68.744C96.3 69.0213 95.5746 69.16 94.732 69.16ZM104.412 69L108.748 57.8H110.508L114.812 69H112.972L110.412 62.248C110.38 62.1733 110.316 61.992 110.22 61.704C110.135 61.416 110.034 61.096 109.916 60.744C109.799 60.392 109.692 60.072 109.596 59.784C109.5 59.4853 109.436 59.2933 109.404 59.208L109.772 59.192C109.708 59.3733 109.628 59.6027 109.532 59.88C109.447 60.1573 109.351 60.4507 109.244 60.76C109.148 61.0693 109.052 61.3627 108.956 61.64C108.86 61.9067 108.78 62.1307 108.716 62.312L106.172 69H104.412ZM106.332 66.216L106.972 64.552H112.06L112.796 66.216H106.332Z"
        fill="var(--body)"
    />
    <path
        fill-rule="evenodd"
        clip-rule="evenodd"
        d="M34.4506 28.54L35.6358 33.604L40.068 34.8637V34.975H36.438V44.71C36.438 45.898 36.581 46.723 36.867 47.185C37.153 47.625 37.582 47.845 38.154 47.845C38.77 47.845 39.386 47.702 40.002 47.416C40.244 47.284 40.497 47.13 40.761 46.954L41.223 47.878C40.937 48.12 40.596 48.362 40.2 48.604C39.276 49.088 38.187 49.33 36.933 49.33C35.415 49.33 34.238 48.923 33.402 48.109C32.566 47.273 32.148 46.074 32.148 44.512V34.975H30.168V34.0091L32.801 33.604L34.1478 28.54H34.4506Z"
        fill="var(--body)"
    />
    <g filter="url(#filter0_f_121_578)">
        <circle
            cx="34.2979"
            cy="34.6734"
            r="7.10507"
            fill="url(#paint0_linear_121_578)"
            fill-opacity="0.5"
        />
    </g>
    <circle
        opacity="0.05"
        cx="34.2979"
        cy="34.6734"
        r="5.98908"
        fill="url(#paint1_linear_121_578)"
    />
    <circle
        opacity="0.05"
        cx="34.2981"
        cy="34.6736"
        r="7.10522"
        fill="url(#paint2_linear_121_578)"
    />
    <path
        d="M33.3251 28.4606C33.569 27.4361 35.0267 27.4361 35.2706 28.4606L36.1359 32.0941C36.2233 32.4612 36.51 32.7478 36.8771 32.8353L40.5106 33.7005C41.5351 33.9445 41.5351 35.4022 40.5106 35.6461L36.8771 36.5114C36.51 36.5988 36.2233 36.8855 36.1359 37.2526L35.2706 40.8861C35.0267 41.9106 33.569 41.9106 33.3251 40.8861L32.4598 37.2526C32.3724 36.8855 32.0857 36.5988 31.7186 36.5114L28.0851 35.6461C27.0606 35.4022 27.0606 33.9445 28.0851 33.7005L31.7186 32.8353C32.0857 32.7478 32.3724 32.4612 32.4598 32.0941L33.3251 28.4606Z"
        fill="url(#paint3_linear_121_578)"
    />
    <defs>
        <filter
            id="filter0_f_121_578"
            x="0.0282116"
            y="0.4037"
            width="68.5395"
            height="68.5395"
            filterUnits="userSpaceOnUse"
            color-interpolation-filters="sRGB"
        >
            <feFlood flood-opacity="0" result="BackgroundImageFix" />
            <feBlend
                mode="normal"
                in="SourceGraphic"
                in2="BackgroundImageFix"
                result="shape"
            />
            <feGaussianBlur
                stdDeviation="13.5823"
                result="effect1_foregroundBlur_121_578"
            />
        </filter>
        <linearGradient
            id="paint0_linear_121_578"
            x1="30.5323"
            y1="27.5684"
            x2="37.8149"
            y2="41.7785"
            gradientUnits="userSpaceOnUse"
        >
            <stop stop-color="var(--body)" />
            <stop offset="0.78" stop-color="#E7D2E7" />
            <stop offset="1" stop-color="#CED8E1" />
        </linearGradient>
        <linearGradient
            id="paint1_linear_121_578"
            x1="31.1237"
            y1="28.6843"
            x2="37.2625"
            y2="40.6625"
            gradientUnits="userSpaceOnUse"
        >
            <stop stop-color="var(--body)" />
            <stop offset="0.78" stop-color="#E7D2E7" />
            <stop offset="1" stop-color="#CED8E1" />
        </linearGradient>
        <linearGradient
            id="paint2_linear_121_578"
            x1="30.5323"
            y1="27.5684"
            x2="37.8152"
            y2="41.7788"
            gradientUnits="userSpaceOnUse"
        >
            <stop stop-color="var(--body)" />
            <stop offset="0.78" stop-color="#E7D2E7" />
            <stop offset="1" stop-color="#CED8E1" />
        </linearGradient>
        <linearGradient
            id="paint3_linear_121_578"
            x1="28.84"
            y1="24.3755"
            x2="39.3953"
            y2="44.9712"
            gradientUnits="userSpaceOnUse"
        >
            <stop offset="0" stop-color="var(--body)" />
            <stop offset="1" stop-color="var(--body)" />
        </linearGradient>
    </defs>
</svg>
