<svg
    width="120"
    height="43"
    viewBox="0 0 120 43"
    fill="none"
    xmlns="http://www.w3.org/2000/svg"
>
    <path
        d="M23.8259 22.33C22.3079 22.33 20.9769 21.978 19.8329 21.274C18.6889 20.57 17.7979 19.613 17.1599 18.403C16.5439 17.171 16.2359 15.785 16.2359 14.245C16.2359 12.529 16.5439 11.066 17.1599 9.85597C17.7979 8.64597 18.6669 7.73297 19.7669 7.11697C20.8669 6.47897 22.1099 6.15997 23.4959 6.15997C24.8599 6.15997 26.0919 6.43497 27.1919 6.98497C28.2919 7.53497 29.1609 8.31597 29.7989 9.32797C30.4369 10.318 30.7559 11.462 30.7559 12.76C30.7559 13.178 30.7339 13.651 30.6899 14.179L30.6239 14.839H20.6909C20.6909 16.929 21.0099 18.458 21.6479 19.426C22.2859 20.372 23.1769 20.845 24.3209 20.845C25.3769 20.845 26.2569 20.614 26.9609 20.152C27.6869 19.668 28.3799 18.986 29.0399 18.106L30.0629 18.865C29.4249 19.855 28.6219 20.68 27.6539 21.34C26.7079 22 25.4319 22.33 23.8259 22.33ZM26.3009 13.354C26.3009 11.286 26.0589 9.82297 25.5749 8.96497C25.0909 8.08497 24.3979 7.64497 23.4959 7.64497C22.6599 7.64497 21.9779 8.09597 21.4499 8.99797C20.9439 9.87797 20.6909 11.33 20.6909 13.354H26.3009ZM41.9029 22.33C40.2969 22.33 38.8889 21.978 37.6789 21.274C36.4909 20.548 35.5779 19.58 34.9399 18.37C34.3019 17.138 33.9829 15.763 33.9829 14.245C33.9829 12.727 34.3019 11.363 34.9399 10.153C35.5779 8.92097 36.4909 7.95297 37.6789 7.24897C38.8889 6.52297 40.2969 6.15997 41.9029 6.15997C43.5089 6.15997 44.9059 6.52297 46.0939 7.24897C47.3039 7.95297 48.2279 8.92097 48.8659 10.153C49.5039 11.363 49.8229 12.727 49.8229 14.245C49.8229 15.763 49.5039 17.138 48.8659 18.37C48.2279 19.58 47.3039 20.548 46.0939 21.274C44.9059 21.978 43.5089 22.33 41.9029 22.33ZM41.9029 20.845C43.0249 20.845 43.8829 20.24 44.4769 19.03C45.0709 17.82 45.3679 16.225 45.3679 14.245C45.3679 12.265 45.0709 10.67 44.4769 9.45997C43.8829 8.24997 43.0249 7.64497 41.9029 7.64497C40.7809 7.64497 39.9229 8.24997 39.3289 9.45997C38.7349 10.67 38.4379 12.265 38.4379 14.245C38.4379 16.225 38.7349 17.82 39.3289 19.03C39.9229 20.24 40.7809 20.845 41.9029 20.845ZM60.1439 22.33C57.9219 22.33 56.2059 21.582 54.9959 20.086C53.8079 18.568 53.2139 16.621 53.2139 14.245C53.2139 11.869 53.8189 9.93297 55.0289 8.43697C56.2609 6.91897 58.0209 6.15997 60.3089 6.15997C61.1009 6.15997 61.9479 6.32497 62.8499 6.65497C63.1799 6.80897 63.4879 6.97397 63.7739 7.14997V4.50997C63.7739 3.38797 63.6199 2.56297 63.3119 2.03497C63.0039 1.48497 62.3879 1.20997 61.4639 1.20997H61.1339V0.219971H65.0939C65.8859 0.219971 66.4909 0.351971 66.9089 0.615971C67.3269 0.879971 67.6239 1.31997 67.7999 1.93597C67.9759 2.52997 68.0639 3.38797 68.0639 4.50997V22H65.2589L64.1039 20.515H63.9389C63.7409 20.823 63.4329 21.131 63.0149 21.439C62.2669 22.033 61.3099 22.33 60.1439 22.33ZM60.8039 20.845C61.6179 20.845 62.3549 20.493 63.0149 19.789C63.2569 19.547 63.5099 19.184 63.7739 18.7V8.63497C63.5539 8.45897 63.2899 8.29397 62.9819 8.13997C62.2779 7.80997 61.6069 7.64497 60.9689 7.64497C58.7689 7.64497 57.6689 9.84497 57.6689 14.245C57.6689 16.291 57.9109 17.908 58.3949 19.096C58.9009 20.262 59.7039 20.845 60.8039 20.845ZM80.138 22.33C78.532 22.33 77.124 21.978 75.914 21.274C74.726 20.548 73.813 19.58 73.175 18.37C72.5368 17.138 72.2178 15.763 72.2178 14.245C72.2178 12.727 72.5368 11.363 73.175 10.153C73.813 8.92097 74.726 7.95297 75.914 7.24897C77.124 6.52297 78.532 6.15997 80.138 6.15997C81.744 6.15997 83.141 6.52297 84.329 7.24897C85.539 7.95297 86.463 8.92097 87.101 10.153C87.739 11.363 88.058 12.727 88.058 14.245C88.058 15.763 87.739 17.138 87.101 18.37C86.463 19.58 85.539 20.548 84.329 21.274C83.141 21.978 81.744 22.33 80.138 22.33ZM80.138 20.845C81.26 20.845 82.118 20.24 82.712 19.03C83.306 17.82 83.603 16.225 83.603 14.245C83.603 12.265 83.306 10.67 82.712 9.45997C82.118 8.24997 81.26 7.64497 80.138 7.64497C79.016 7.64497 78.158 8.24997 77.564 9.45997C76.97 10.67 76.673 12.265 76.673 14.245C76.673 16.225 76.97 17.82 77.564 19.03C78.158 20.24 79.016 20.845 80.138 20.845ZM102.801 6.81997C103.197 7.10597 103.483 7.42497 103.659 7.77697C103.835 8.10697 103.923 8.28297 103.923 8.30497L102.24 9.59197C102.086 9.39397 101.888 9.18497 101.646 8.96497C101.162 8.52497 100.601 8.30497 99.963 8.30497C98.687 8.30497 97.708 8.64597 97.026 9.32797L97.092 9.82297C97.136 10.219 97.158 10.582 97.158 10.912V22H92.868V10.78C92.868 9.65797 92.714 8.83297 92.406 8.30497C92.12 7.75497 91.515 7.47997 90.591 7.47997H90.261V6.48997H93.528C94.276 6.48997 94.859 6.58897 95.277 6.78697C95.717 6.96297 96.058 7.27097 96.3 7.71097C97.488 6.67697 98.874 6.15997 100.458 6.15997C101.404 6.15997 102.185 6.37997 102.801 6.81997ZM111.578 22.33C109.796 22.33 108.41 21.934 107.42 21.142C106.452 20.328 105.968 19.239 105.968 17.875C105.968 16.775 106.221 15.862 106.727 15.136C107.255 14.41 108.168 13.86 109.466 13.486C110.764 13.112 112.568 12.925 114.878 12.925H115.373C115.373 11.011 115.109 9.65797 114.581 8.86597C114.053 8.05197 113.272 7.64497 112.238 7.64497C111.38 7.64497 110.676 7.85397 110.126 8.27197C109.576 8.68997 109.18 9.47097 108.938 10.615H107.123C107.123 9.86697 107.167 9.22897 107.255 8.70097C107.365 8.17297 107.596 7.71097 107.948 7.31497C108.63 6.54497 110.28 6.15997 112.898 6.15997C115.098 6.15997 116.77 6.74297 117.914 7.90897C119.08 9.05297 119.663 10.78 119.663 13.09V22H116.858L115.703 20.515H115.538C115.34 20.823 115.032 21.131 114.614 21.439C113.866 22.033 112.854 22.33 111.578 22.33ZM112.568 20.68C113.03 20.68 113.426 20.592 113.756 20.416C114.086 20.218 114.405 19.954 114.713 19.624C114.999 19.316 115.219 18.953 115.373 18.535V14.41H114.878C113.316 14.41 112.183 14.696 111.479 15.268C110.775 15.818 110.423 16.687 110.423 17.875C110.423 18.777 110.61 19.47 110.984 19.954C111.358 20.438 111.886 20.68 112.568 20.68ZM8.5869 42.16C7.8082 42.16 7.09351 42.0213 6.44291 41.744C5.79221 41.4667 5.2269 41.072 4.7469 40.56C4.2669 40.0373 3.8935 39.424 3.6269 38.72C3.3709 38.016 3.2429 37.2427 3.2429 36.4C3.2429 35.6 3.3815 34.8587 3.6589 34.176C3.9469 33.4827 4.3415 32.8747 4.8429 32.352C5.3442 31.8293 5.9255 31.424 6.5869 31.136C7.2482 30.848 7.9629 30.704 8.7309 30.704C9.2749 30.704 9.8029 30.7893 10.3149 30.96C10.8375 31.12 11.3069 31.3493 11.7229 31.648C12.1495 31.936 12.4962 32.2667 12.7629 32.64L11.6109 33.84C11.3015 33.5307 10.9869 33.2747 10.6669 33.072C10.3575 32.8587 10.0375 32.6987 9.70691 32.592C9.38691 32.4853 9.0615 32.432 8.7309 32.432C8.2082 32.432 7.7175 32.5333 7.2589 32.736C6.8109 32.928 6.41621 33.2 6.07491 33.552C5.74421 33.904 5.48291 34.3253 5.2909 34.816C5.0989 35.296 5.0029 35.824 5.0029 36.4C5.0029 37.008 5.0935 37.5627 5.2749 38.064C5.4669 38.5547 5.73351 38.976 6.07491 39.328C6.41621 39.68 6.82151 39.952 7.2909 40.144C7.7709 40.3253 8.2989 40.416 8.8749 40.416C9.2269 40.416 9.57351 40.368 9.91491 40.272C10.2562 40.176 10.5762 40.0373 10.8749 39.856C11.1735 39.6747 11.4455 39.4613 11.6909 39.216L12.5549 40.624C12.3095 40.912 11.9735 41.1733 11.5469 41.408C11.1309 41.6427 10.6615 41.8293 10.1389 41.968C9.6269 42.096 9.1095 42.16 8.5869 42.16ZM26.5342 42V30.8H28.2622V42H26.5342ZM19.2222 42V30.8H20.9502V42H19.2222ZM19.9742 37.248V35.584H27.3022V37.248H19.9742ZM35.2981 42V40.4H37.1061V32.4H35.2981V30.8H40.6421V32.4H38.8341V40.4H40.6421V42H35.2981ZM52.1284 42.16C51.339 42.16 50.6084 42.016 49.9364 41.728C49.275 41.44 48.6937 41.04 48.1924 40.528C47.7017 40.0053 47.3177 39.3973 47.0404 38.704C46.7737 38 46.6404 37.232 46.6404 36.4C46.6404 35.568 46.7737 34.8053 47.0404 34.112C47.3177 33.408 47.7017 32.8 48.1924 32.288C48.6937 31.7653 49.275 31.36 49.9364 31.072C50.6084 30.784 51.339 30.64 52.1284 30.64C52.9177 30.64 53.643 30.784 54.3044 31.072C54.9764 31.36 55.5577 31.7653 56.0484 32.288C56.5497 32.8107 56.9337 33.424 57.2004 34.128C57.4777 34.8213 57.6164 35.5787 57.6164 36.4C57.6164 37.2213 57.4777 37.984 57.2004 38.688C56.9337 39.3813 56.5497 39.9893 56.0484 40.512C55.5577 41.0347 54.9764 41.44 54.3044 41.728C53.643 42.016 52.9177 42.16 52.1284 42.16ZM52.1284 40.48C52.6724 40.48 53.1684 40.3787 53.6164 40.176C54.075 39.9733 54.4697 39.6907 54.8004 39.328C55.131 38.9547 55.387 38.5227 55.5684 38.032C55.7604 37.5307 55.8564 36.9867 55.8564 36.4C55.8564 35.8133 55.7604 35.2747 55.5684 34.784C55.387 34.2827 55.131 33.8507 54.8004 33.488C54.4697 33.1147 54.075 32.8267 53.6164 32.624C53.1684 32.4213 52.6724 32.32 52.1284 32.32C51.5844 32.32 51.083 32.4213 50.6244 32.624C50.1764 32.8267 49.7817 33.1093 49.4404 33.472C49.1097 33.8347 48.8537 34.2667 48.6724 34.768C48.491 35.2587 48.4004 35.8027 48.4004 36.4C48.4004 36.9867 48.491 37.5307 48.6724 38.032C48.8537 38.5333 49.1097 38.9653 49.4404 39.328C49.7817 39.6907 50.1764 39.9733 50.6244 40.176C51.083 40.3787 51.5844 40.48 52.1284 40.48ZM67.732 42.16C67.124 42.16 66.5586 42.08 66.036 41.92C65.524 41.76 65.0546 41.52 64.628 41.2C64.212 40.8693 63.8386 40.464 63.508 39.984L64.692 38.624C65.2146 39.3707 65.716 39.888 66.196 40.176C66.676 40.464 67.2466 40.608 67.908 40.608C68.3133 40.608 68.6813 40.544 69.012 40.416C69.3426 40.288 69.604 40.112 69.796 39.888C69.988 39.664 70.084 39.408 70.084 39.12C70.084 38.928 70.052 38.7467 69.988 38.576C69.924 38.4053 69.8226 38.2507 69.684 38.112C69.556 37.9733 69.3853 37.8453 69.172 37.728C68.9693 37.6107 68.7293 37.5093 68.452 37.424C68.1746 37.328 67.8546 37.248 67.492 37.184C66.916 37.0667 66.4146 36.912 65.988 36.72C65.5613 36.528 65.204 36.288 64.916 36C64.628 35.712 64.4146 35.3867 64.276 35.024C64.1373 34.6507 64.068 34.2347 64.068 33.776C64.068 33.328 64.164 32.912 64.356 32.528C64.5586 32.144 64.8306 31.8133 65.172 31.536C65.524 31.248 65.9346 31.0293 66.404 30.88C66.8733 30.72 67.38 30.64 67.924 30.64C68.5 30.64 69.028 30.7147 69.508 30.864C69.988 31.0133 70.4146 31.2373 70.788 31.536C71.1613 31.824 71.4706 32.1813 71.716 32.608L70.5 33.808C70.2866 33.456 70.0466 33.1627 69.78 32.928C69.5133 32.6827 69.22 32.5013 68.9 32.384C68.58 32.256 68.2386 32.192 67.876 32.192C67.46 32.192 67.0973 32.256 66.788 32.384C66.4786 32.512 66.2333 32.6933 66.052 32.928C65.8813 33.152 65.796 33.4187 65.796 33.728C65.796 33.952 65.8386 34.16 65.924 34.352C66.0093 34.5333 66.1373 34.6987 66.308 34.848C66.4893 34.9867 66.7293 35.1147 67.028 35.232C67.3266 35.3387 67.684 35.4347 68.1 35.52C68.6866 35.648 69.2093 35.8133 69.668 36.016C70.1266 36.208 70.516 36.4373 70.836 36.704C71.156 36.9707 71.396 37.2693 71.556 37.6C71.7266 37.9307 71.812 38.288 71.812 38.672C71.812 39.3867 71.6466 40.0053 71.316 40.528C70.9853 41.0507 70.516 41.456 69.908 41.744C69.3 42.0213 68.5746 42.16 67.732 42.16ZM77.412 42L81.748 30.8H83.508L87.812 42H85.972L83.412 35.248C83.38 35.1733 83.316 34.992 83.22 34.704C83.135 34.416 83.034 34.096 82.916 33.744C82.799 33.392 82.692 33.072 82.596 32.784C82.5 32.4853 82.436 32.2933 82.404 32.208L82.772 32.192C82.708 32.3733 82.628 32.6027 82.532 32.88C82.447 33.1573 82.351 33.4507 82.244 33.76C82.148 34.0693 82.052 34.3627 81.956 34.64C81.86 34.9067 81.78 35.1307 81.716 35.312L79.172 42H77.412ZM79.332 39.216L79.972 37.552H85.06L85.796 39.216H79.332Z"
        fill="var(--body)"
    />
    <path
        d="M6.3251 1.46057C6.569 0.436075 8.0267 0.436075 8.2706 1.46057L9.1359 5.09408C9.2233 5.46118 9.51 5.74778 9.8771 5.83528L13.5106 6.70048C14.5351 6.94448 14.5351 8.40217 13.5106 8.64607L9.8771 9.51137C9.51 9.59877 9.2233 9.88548 9.1359 10.2526L8.2706 13.8861C8.0267 14.9106 6.569 14.9106 6.3251 13.8861L5.4598 10.2526C5.3724 9.88548 5.0857 9.59877 4.7186 9.51137L1.0851 8.64607C0.0606017 8.40217 0.0606017 6.94448 1.0851 6.70048L4.7186 5.83528C5.0857 5.74778 5.3724 5.46118 5.4598 5.09408L6.3251 1.46057Z"
        fill="var(--body)"
    />
    <path
        fill-rule="evenodd"
        clip-rule="evenodd"
        d="M7.4506 1.53998L8.6358 6.60398L13.068 7.86368V7.97498H9.438V17.71C9.438 18.898 9.581 19.723 9.867 20.185C10.153 20.625 10.582 20.845 11.154 20.845C11.77 20.845 12.386 20.702 13.002 20.416C13.244 20.284 13.497 20.13 13.761 19.954L14.223 20.878C13.937 21.12 13.596 21.362 13.2 21.604C12.276 22.088 11.187 22.33 9.933 22.33C8.415 22.33 7.238 21.923 6.402 21.109C5.566 20.273 5.148 19.074 5.148 17.512V7.97498H3.168V7.00908L5.801 6.60398L7.1478 1.53998H7.4506Z"
        fill="var(--body)"
    />
    <path
        opacity="0.05"
        d="M7.2979 13.6625C10.6056 13.6625 13.287 10.9811 13.287 7.67341C13.287 4.36573 10.6056 1.68433 7.2979 1.68433C3.99023 1.68433 1.30882 4.36573 1.30882 7.67341C1.30882 10.9811 3.99023 13.6625 7.2979 13.6625Z"
        fill="var(--body)"
    />
    <path
        opacity="0.05"
        d="M7.29811 14.7788C11.2222 14.7788 14.4033 11.5977 14.4033 7.67358C14.4033 3.74947 11.2222 0.568359 7.29811 0.568359C3.374 0.568359 0.192886 3.74947 0.192886 7.67358C0.192886 11.5977 3.374 14.7788 7.29811 14.7788Z"
        fill="var(--body)"
    />
</svg>
