<svg
    width="20"
    height="20"
    viewBox="0 0 20 20"
    fill="none"
    xmlns="http://www.w3.org/2000/svg"
>
    <path
        fill-rule="evenodd"
        clip-rule="evenodd"
        d="M9.99746 1.4782C5.2922 1.4782 1.47783 5.29351 1.47783 9.99994C1.47783 14.7064 5.2922 18.5217 9.99746 18.5217C10.0054 18.5217 10.0133 18.5218 10.0211 18.5221C10.0277 18.5219 10.0343 18.5218 10.0409 18.5218C11.7283 18.5218 13.2989 18.0319 14.6213 17.1869C14.9652 16.9671 15.4221 17.0678 15.6418 17.4118C15.8615 17.7558 15.7608 18.2128 15.4169 18.4325C13.8641 19.4249 12.0185 20 10.0409 20C10.033 20 10.0251 19.9999 10.0173 19.9996C10.0107 19.9998 10.0041 19.9999 9.99746 19.9999C4.47601 19.9999 0 15.5228 0 9.99994C0 4.47713 4.47601 0 9.99746 0C15.5152 0 19.9889 4.47111 19.9949 9.9888L19.9951 9.99526L19.9963 10.0441C19.9973 10.0856 19.9984 10.1445 19.9992 10.2152C20.0007 10.3559 20.0007 10.5474 19.9946 10.745C19.953 12.0794 19.6761 13.0593 19.1096 13.7245C18.5242 14.4118 17.7449 14.6304 17.0235 14.6982C15.7238 14.8202 14.6088 14.0693 14.0106 13.0242C13.1177 14.2227 11.6793 14.9988 9.9548 14.9988C7.00092 14.9988 4.99995 12.7316 4.99995 10C4.99995 7.26845 7.00092 5.0012 9.9548 5.0012C11.4041 5.0012 12.6514 5.54941 13.5426 6.43585V5.98222C13.5426 5.57402 13.8734 5.24258 14.2815 5.24258C14.6896 5.24258 15.0204 5.57352 15.0204 5.98171V11.3128C15.0204 12.4032 15.9659 13.3128 16.8854 13.2264C17.421 13.1761 17.7532 13.0377 17.9846 12.7659C18.235 12.472 18.4803 11.8908 18.5174 10.699C18.5227 10.529 18.5228 10.3595 18.5214 10.231C18.5207 10.1672 18.5197 10.1144 18.5189 10.078L18.5178 10.0365L18.5175 10.0263L18.5175 10.0241L18.5171 10.0119V9.99994C18.5171 5.29351 14.7027 1.4782 9.99746 1.4782ZM9.9548 6.4794C7.87431 6.4794 6.47778 8.02642 6.47778 10C6.47778 11.9736 7.87431 13.5206 9.9548 13.5206C12.0548 13.5206 13.5173 11.9535 13.5173 10C13.5173 8.04653 12.0548 6.4794 9.9548 6.4794Z"
        fill="#201F29"
    ></path>
</svg>
