<svg
    width="69"
    height="70"
    viewBox="0 0 69 70"
    xmlns="http://www.w3.org/2000/svg"
>
    <circle
        opacity="0.05"
        cx="34.2979"
        cy="35.1817"
        r="5.98908"
        fill="var(--body)"
    />
    <circle
        opacity="0.05"
        cx="34.2981"
        cy="35.1819"
        r="7.10522"
        fill="var(--body)"
    />
    <path
        d="M33.3251 28.9689C33.569 27.9444 35.0267 27.9444 35.2706 28.9689L36.1359 32.6024C36.2233 32.9695 36.51 33.2562 36.8771 33.3436L40.5106 34.2088C41.5351 34.4528 41.5351 35.9105 40.5106 36.1544L36.8771 37.0197C36.51 37.1071 36.2233 37.3938 36.1359 37.7609L35.2706 41.3944C35.0267 42.4189 33.569 42.4189 33.3251 41.3944L32.4598 37.7609C32.3724 37.3938 32.0857 37.1071 31.7186 37.0197L28.0851 36.1544C27.0606 35.9105 27.0606 34.4528 28.0851 34.2088L31.7186 33.3436C32.0857 33.2562 32.3724 32.9695 32.4598 32.6024L33.3251 28.9689Z"
        fill="var(--body)"
    />

    <circle
        opacity="0.05"
        cx="50.0927"
        cy="19.3866"
        r="2.96181"
        fill="var(--body)"
    />
    <circle
        opacity="0.05"
        cx="50.0929"
        cy="19.3868"
        r="3.51378"
        fill="var(--body)"
    />
    <path
        d="M49.6116 16.3142C49.7322 15.8075 50.4531 15.8075 50.5737 16.3142L51.0016 18.1111C51.0449 18.2926 51.1866 18.4344 51.3682 18.4776L53.1651 18.9055C53.6717 19.0262 53.6717 19.747 53.1651 19.8677L51.3682 20.2956C51.1866 20.3388 51.0449 20.4806 51.0016 20.6621L50.5737 22.459C50.4531 22.9657 49.7322 22.9657 49.6116 22.459L49.1837 20.6621C49.1404 20.4806 48.9987 20.3388 48.8171 20.2956L47.0202 19.8677C46.5136 19.747 46.5136 19.0262 47.0202 18.9055L48.8171 18.4776C48.9987 18.4344 49.1404 18.2926 49.1837 18.1111L49.6116 16.3142Z"
        fill="var(--body)"
    />
</svg>
